<svg width="25" height="25" viewBox="0 0 25 25" fill="none" xmlns="http://www.w3.org/2000/svg">
<path d="M17.7081 2.08315C19.0883 2.08727 20.4108 2.63737 21.3867 3.61329C22.3626 4.58922 22.9127 5.91169 22.9169 7.29185V17.7081C22.9127 19.0883 22.3626 20.4108 21.3867 21.3867C20.4108 22.3626 19.0883 22.9127 17.7081 22.9169H7.29185C5.91169 22.9127 4.58922 22.3626 3.61329 21.3867C2.63737 20.4108 2.08727 19.0883 2.08315 17.7081V7.29185C2.08727 5.91169 2.63737 4.58922 3.61329 3.61329C4.58922 2.63737 5.91169 2.08727 7.29185 2.08315H17.7081ZM17.7081 0H7.29185C3.28125 0 0 3.28125 0 7.29185V17.7081C0 21.7188 3.28125 25 7.29185 25H17.7081C21.7188 25 25 21.7188 25 17.7081V7.29185C25 3.28125 21.7188 0 17.7081 0Z" fill="#0E0F1D"/>
<path d="M19.2706 7.29197C18.9616 7.29197 18.6595 7.20034 18.4026 7.02865C18.1456 6.85696 17.9453 6.61293 17.8271 6.32742C17.7088 6.04191 17.6779 5.72775 17.7382 5.42466C17.7985 5.12156 17.9473 4.84315 18.1658 4.62464C18.3843 4.40612 18.6627 4.2573 18.9658 4.19702C19.2689 4.13673 19.5831 4.16767 19.8686 4.28593C20.1541 4.40419 20.3981 4.60446 20.5698 4.86141C20.7415 5.11836 20.8331 5.42045 20.8331 5.72948C20.8336 5.9348 20.7935 6.13818 20.7151 6.32794C20.6367 6.51771 20.5217 6.69014 20.3765 6.83532C20.2313 6.98049 20.0589 7.09557 19.8691 7.17394C19.6793 7.2523 19.476 7.29242 19.2706 7.29197ZM12.5 8.33326C13.3241 8.33326 14.1297 8.57764 14.815 9.0355C15.5002 9.49336 16.0343 10.1441 16.3497 10.9055C16.665 11.6669 16.7476 12.5047 16.5868 13.313C16.426 14.1213 16.0292 14.8637 15.4464 15.4465C14.8637 16.0292 14.1212 16.4261 13.3129 16.5869C12.5046 16.7476 11.6668 16.6651 10.9054 16.3497C10.144 16.0344 9.49325 15.5003 9.03539 14.8151C8.57753 14.1298 8.33315 13.3242 8.33315 12.5001C8.33433 11.3953 8.77372 10.3362 9.5549 9.555C10.3361 8.77383 11.3952 8.33444 12.5 8.33326ZM12.5 6.25013C11.2639 6.25013 10.0555 6.61668 9.02769 7.30344C7.99988 7.99019 7.1988 8.9663 6.72576 10.1083C6.25271 11.2504 6.12894 12.507 6.37009 13.7194C6.61125 14.9318 7.20651 16.0454 8.08058 16.9195C8.95466 17.7936 10.0683 18.3888 11.2807 18.63C12.4931 18.8711 13.7497 18.7473 14.8918 18.2743C16.0338 17.8013 17.0099 17.0002 17.6967 15.9724C18.3834 14.9446 18.75 13.7362 18.75 12.5001C18.75 10.8425 18.0915 9.2528 16.9194 8.0807C15.7473 6.9086 14.1576 6.25013 12.5 6.25013Z" fill="#0E0F1D"/>
</svg>
