<svg width="39" height="39" viewBox="0 0 39 39" fill="none" xmlns="http://www.w3.org/2000/svg">
<g clip-path="url(#clip0_169_108)">
<path d="M17.6497 35.0773C14.6334 31.3013 7.9248 22.1497 7.9248 17.0093C7.9248 10.7725 12.8918 5.7168 19.0192 5.7168C25.1442 5.7168 30.1136 10.7725 30.1136 17.0093C30.1136 22.1497 23.3529 31.3013 20.3886 35.0773C19.6779 35.9771 18.3605 35.9771 17.6497 35.0773ZM19.0192 20.7735C21.0589 20.7735 22.7173 19.0855 22.7173 17.0093C22.7173 14.9331 21.0589 13.2451 19.0192 13.2451C16.9794 13.2451 15.3211 14.9331 15.3211 17.0093C15.3211 19.0855 16.9794 20.7735 19.0192 20.7735Z" fill="#0E0F1D"/>
</g>
<defs>
<clipPath id="clip0_169_108">
<rect width="22.1888" height="30.1133" fill="white" transform="translate(7.9248 5.7168)"/>
</clipPath>
</defs>
</svg>
