<svg width="30" height="31" viewBox="0 0 30 31" fill="none" xmlns="http://www.w3.org/2000/svg">
<path d="M9.72288 9.42088V4.56055M19.4436 9.42088V4.56055M8.5078 14.2812H20.6586M6.07763 26.4321H23.0888C23.7333 26.4321 24.3514 26.176 24.8072 25.7203C25.2629 25.2645 25.519 24.6464 25.519 24.0019V9.42088C25.519 8.77636 25.2629 8.15824 24.8072 7.70249C24.3514 7.24675 23.7333 6.99071 23.0888 6.99071H6.07763C5.43311 6.99071 4.81499 7.24675 4.35924 7.70249C3.9035 8.15824 3.64746 8.77636 3.64746 9.42088V24.0019C3.64746 24.6464 3.9035 25.2645 4.35924 25.7203C4.81499 26.176 5.43311 26.4321 6.07763 26.4321Z" stroke="white" stroke-width="2.59218" stroke-linecap="round" stroke-linejoin="round"/>
</svg>
