<svg width="26" height="26" viewBox="0 0 26 26" fill="none" xmlns="http://www.w3.org/2000/svg">
<path d="M8.62216 7.54538V3.23438M17.2442 7.54538V3.23438M7.5444 11.8564H18.3219M5.3889 22.6339H20.4774C21.0491 22.6339 21.5974 22.4068 22.0016 22.0026C22.4058 21.5983 22.6329 21.0501 22.6329 20.4784V7.54538C22.6329 6.97371 22.4058 6.42545 22.0016 6.02121C21.5974 5.61698 21.0491 5.38988 20.4774 5.38988H5.3889C4.81723 5.38988 4.26897 5.61698 3.86473 6.02121C3.4605 6.42545 3.2334 6.97371 3.2334 7.54538V20.4784C3.2334 21.0501 3.4605 21.5983 3.86473 22.0026C4.26897 22.4068 4.81723 22.6339 5.3889 22.6339Z" stroke="white" stroke-opacity="0.7" stroke-width="3.01031" stroke-linecap="round" stroke-linejoin="round"/>
</svg>
