<svg width="368" height="658" viewBox="0 0 368 658" fill="none" xmlns="http://www.w3.org/2000/svg">
<path d="M113 0H0V109.667H113V0Z" fill="#233761"/>
<path d="M56.5 0L0 54.8333H56.5V109.667L113 54.8333V0H56.5Z" fill="#193559"/>
<path d="M226 0H113V109.667H226V0Z" fill="#233761"/>
<path d="M169.5 0L113 54.8333H169.5V109.667L226 54.8333V0H169.5Z" fill="#193559"/>
<path d="M339 0H226V109.667H339V0Z" fill="#233761"/>
<path d="M282.5 0L226 54.8333H282.5V109.667L339 54.8333V0H282.5Z" fill="#193559"/>
<path d="M368 0H339V109.667H368V0Z" fill="#233761"/>
<path d="M353.5 0L339 54.8333H353.5V109.667L368 54.8333V0H353.5Z" fill="#193559"/>
<path d="M113 109.667H0V219.333H113V109.667Z" fill="#233761"/>
<path d="M56.5 109.667L0 164.5H56.5V219.333L113 164.5V109.667H56.5Z" fill="#193559"/>
<path d="M226 109.667H113V219.333H226V109.667Z" fill="#233761"/>
<path d="M169.5 109.667L113 164.5H169.5V219.333L226 164.5V109.667H169.5Z" fill="#193559"/>
<path d="M339 109.667H226V219.333H339V109.667Z" fill="#233761"/>
<path d="M282.5 109.667L226 164.5H282.5V219.333L339 164.5V109.667H282.5Z" fill="#193559"/>
<path d="M368 109.667H339V219.333H368V109.667Z" fill="#233761"/>
<path d="M353.5 109.667L339 164.5H353.5V219.333L368 164.5V109.667H353.5Z" fill="#193559"/>
<path d="M113 219.333H0V329H113V219.333Z" fill="#233761"/>
<path d="M56.5 219.333L0 274.167H56.5V329L113 274.167V219.333L56.5 219.333Z" fill="#193559"/>
<path d="M226 219.333H113V329H226V219.333Z" fill="#233761"/>
<path d="M169.5 219.333L113 274.167H169.5V329L226 274.167V219.333L169.5 219.333Z" fill="#193559"/>
<path d="M339 219.333H226V329H339V219.333Z" fill="#233761"/>
<path d="M282.5 219.333L226 274.167H282.5V329L339 274.167V219.333L282.5 219.333Z" fill="#193559"/>
<path d="M368 219.333H339V329H368V219.333Z" fill="#233761"/>
<path d="M353.5 219.333L339 274.167H353.5V329L368 274.167V219.333L353.5 219.333Z" fill="#193559"/>
<path d="M113 329H0V438.667H113V329Z" fill="#233761"/>
<path d="M56.5 329L0 383.833H56.5V438.667L113 383.833V329H56.5Z" fill="#193559"/>
<path d="M226 329H113V438.667H226V329Z" fill="#233761"/>
<path d="M169.5 329L113 383.833H169.5V438.667L226 383.833V329H169.5Z" fill="#193559"/>
<path d="M339 329H226V438.667H339V329Z" fill="#233761"/>
<path d="M282.5 329L226 383.833H282.5V438.667L339 383.833V329H282.5Z" fill="#193559"/>
<path d="M368 329H339V438.667H368V329Z" fill="#233761"/>
<path d="M353.5 329L339 383.833H353.5V438.667L368 383.833V329H353.5Z" fill="#193559"/>
<path d="M113 438.667H0V548.333H113V438.667Z" fill="#233761"/>
<path d="M56.5 438.667L0 493.5H56.5V548.333L113 493.5V438.667L56.5 438.667Z" fill="#193559"/>
<path d="M226 438.667H113V548.333H226V438.667Z" fill="#233761"/>
<path d="M169.5 438.667L113 493.5H169.5V548.333L226 493.5V438.667L169.5 438.667Z" fill="#193559"/>
<path d="M339 438.667H226V548.333H339V438.667Z" fill="#233761"/>
<path d="M282.5 438.667L226 493.5H282.5V548.333L339 493.5V438.667L282.5 438.667Z" fill="#193559"/>
<path d="M368 438.667H339V548.333H368V438.667Z" fill="#233761"/>
<path d="M353.5 438.667L339 493.5H353.5V548.333L368 493.5V438.667L353.5 438.667Z" fill="#193559"/>
<path d="M113 548.333H0V658H113V548.333Z" fill="#233761"/>
<path d="M56.5 548.333L0 603.167H56.5V658L113 603.167V548.333H56.5Z" fill="#193559"/>
<path d="M226 548.333H113V658H226V548.333Z" fill="#233761"/>
<path d="M169.5 548.333L113 603.167H169.5V658L226 603.167V548.333H169.5Z" fill="#193559"/>
<path d="M339 548.333H226V658H339V548.333Z" fill="#233761"/>
<path d="M282.5 548.333L226 603.167H282.5V658L339 603.167V548.333H282.5Z" fill="#193559"/>
<path d="M368 548.333H339V658H368V548.333Z" fill="#233761"/>
<path d="M353.5 548.333L339 603.167H353.5V658L368 603.167V548.333H353.5Z" fill="#193559"/>
<path d="M113 0H0V109.667H113V0Z" fill="#233761"/>
<path d="M56.5 0L0 54.8333H56.5V109.667L113 54.8333V0H56.5Z" fill="#193559"/>
<path d="M113 109.667H0V219.333H113V109.667Z" fill="#233761"/>
<path d="M56.5 109.667L0 164.5H56.5V219.333L113 164.5V109.667H56.5Z" fill="#193559"/>
<path d="M113 219.333H0V329H113V219.333Z" fill="#233761"/>
<path d="M56.5 219.333L0 274.167H56.5V329L113 274.167V219.333L56.5 219.333Z" fill="#193559"/>
<path d="M113 329H0V438.667H113V329Z" fill="#233761"/>
<path d="M56.5 329L0 383.833H56.5V438.667L113 383.833V329H56.5Z" fill="#193559"/>
<path d="M113 438.667H0V548.333H113V438.667Z" fill="#233761"/>
<path d="M56.5 438.667L0 493.5H56.5V548.333L113 493.5V438.667L56.5 438.667Z" fill="#193559"/>
<path d="M113 548.333H0V638.59H113V548.333Z" fill="#233761"/>
<path d="M56.5 548.333L0 593.462H56.5V638.59L113 593.462V548.333H56.5Z" fill="#193559"/>
</svg>
