<svg width="30" height="30" viewBox="0 0 30 30" fill="none" xmlns="http://www.w3.org/2000/svg">
<path d="M14.5832 10.3869V15.2473L18.2285 18.8925M25.519 15.2473C25.519 16.6834 25.2361 18.1054 24.6865 19.4322C24.137 20.759 23.3314 21.9645 22.316 22.98C21.3005 23.9955 20.0949 24.801 18.7681 25.3506C17.4414 25.9002 16.0193 26.183 14.5832 26.183C13.1471 26.183 11.7251 25.9002 10.3983 25.3506C9.0715 24.801 7.86595 23.9955 6.85047 22.98C5.83499 21.9645 5.02947 20.759 4.4799 19.4322C3.93032 18.1054 3.64746 16.6834 3.64746 15.2473C3.64746 12.3469 4.79962 9.56538 6.85047 7.51453C8.90132 5.46368 11.6829 4.31152 14.5832 4.31152C17.4836 4.31152 20.2651 5.46368 22.316 7.51453C24.3668 9.56538 25.519 12.3469 25.519 15.2473Z" stroke="white" stroke-width="2.59218" stroke-linecap="round" stroke-linejoin="round"/>
</svg>
