<svg width="26" height="26" viewBox="0 0 26 26" fill="none" xmlns="http://www.w3.org/2000/svg">
<path d="M12.9356 8.622V12.9337L16.1694 16.1674M22.6369 12.9337C22.6369 14.2077 22.3859 15.4692 21.8984 16.6462C21.4109 17.8232 20.6963 18.8926 19.7954 19.7935C18.8946 20.6943 17.8251 21.4089 16.6481 21.8965C15.4711 22.384 14.2096 22.6349 12.9356 22.6349C11.6616 22.6349 10.4001 22.384 9.22312 21.8965C8.04611 21.4089 6.97665 20.6943 6.07581 19.7935C5.17496 18.8926 4.46037 17.8232 3.97284 16.6462C3.48531 15.4692 3.23437 14.2077 3.23438 12.9337C3.23438 10.3607 4.25647 7.89319 6.07581 6.07385C7.89514 4.25451 10.3627 3.23242 12.9356 3.23242C15.5086 3.23242 17.9761 4.25451 19.7954 6.07385C21.6148 7.89319 22.6369 10.3607 22.6369 12.9337Z" stroke="white" stroke-opacity="0.7" stroke-width="2.03352" stroke-linecap="round" stroke-linejoin="round"/>
</svg>
