<svg width="715" height="385" viewBox="0 0 715 385" fill="none" xmlns="http://www.w3.org/2000/svg">
<path d="M-7.78418 260.346L-7.78418 384.626H112.857L112.857 260.346H-7.78418Z" fill="#233761"/>
<path d="M-7.78418 322.486L52.5367 384.626L52.5367 322.486H112.857L52.5367 260.346H-7.78418L-7.78418 322.486Z" fill="#193559"/>
<path d="M-7.78418 136.067L-7.78418 260.346H112.857V136.067H-7.78418Z" fill="#233761"/>
<path d="M-7.78418 198.207L52.5367 260.346L52.5367 198.207H112.857L52.5367 136.067H-7.78418L-7.78418 198.207Z" fill="#193559"/>
<path d="M-7.78418 11.7874L-7.78418 136.067H112.857L112.857 11.7874H-7.78418Z" fill="#233761"/>
<path d="M-7.78418 73.9272L52.5367 136.067L52.5367 73.9272H112.857L52.5367 11.7874H-7.78418L-7.78418 73.9272Z" fill="#193559"/>
<path d="M-7.78418 -20.1074L-7.78418 11.7874H112.857V-20.1074H-7.78418Z" fill="#233761"/>
<path d="M-7.78418 -4.15997L52.5367 11.7874V-4.15997H112.857L52.5367 -20.1074H-7.78418L-7.78418 -4.15997Z" fill="#193559"/>
<path d="M112.857 260.346L112.857 384.626H233.499V260.346H112.857Z" fill="#233761"/>
<path d="M112.857 322.486L173.178 384.626V322.486H233.499L173.178 260.346H112.857L112.857 322.486Z" fill="#193559"/>
<path d="M112.857 136.067V260.346H233.499L233.499 136.067L112.857 136.067Z" fill="#233761"/>
<path d="M112.857 198.207L173.178 260.346V198.207L233.499 198.207L173.178 136.067H112.857V198.207Z" fill="#193559"/>
<path d="M112.857 11.7874L112.857 136.067L233.499 136.067V11.7874H112.857Z" fill="#233761"/>
<path d="M112.857 73.9272L173.178 136.067V73.9272H233.499L173.178 11.7874H112.857L112.857 73.9272Z" fill="#193559"/>
<path d="M112.857 -20.1074V11.7874H233.499V-20.1074H112.857Z" fill="#233761"/>
<path d="M112.857 -4.15997L173.178 11.7874V-4.15997H233.499L173.178 -20.1074H112.857V-4.15997Z" fill="#193559"/>
<path d="M233.499 260.346V384.626H354.141V260.346H233.499Z" fill="#233761"/>
<path d="M233.499 322.486L293.82 384.626V322.486H354.141L293.82 260.346H233.499L233.499 322.486Z" fill="#193559"/>
<path d="M233.499 136.067L233.499 260.346H354.141V136.067H233.499Z" fill="#233761"/>
<path d="M233.499 198.207L293.82 260.346V198.207H354.141L293.82 136.067H233.499L233.499 198.207Z" fill="#193559"/>
<path d="M233.499 11.7874V136.067H354.141V11.7874H233.499Z" fill="#233761"/>
<path d="M233.499 73.9272L293.82 136.067V73.9272H354.141L293.82 11.7874H233.499L233.499 73.9272Z" fill="#193559"/>
<path d="M233.499 -20.1074V11.7874H354.141V-20.1074H233.499Z" fill="#233761"/>
<path d="M233.499 -4.15997L293.82 11.7874V-4.15997H354.141L293.82 -20.1074H233.499L233.499 -4.15997Z" fill="#193559"/>
<path d="M354.141 260.346V384.626L474.783 384.626V260.346H354.141Z" fill="#233761"/>
<path d="M354.141 322.486L414.462 384.626V322.486H474.782L414.462 260.346H354.141V322.486Z" fill="#193559"/>
<path d="M354.141 136.067V260.346H474.783V136.067H354.141Z" fill="#233761"/>
<path d="M354.141 198.207L414.462 260.346V198.207H474.782L414.462 136.067H354.141V198.207Z" fill="#193559"/>
<path d="M354.141 11.7874V136.067H474.783V11.7874L354.141 11.7874Z" fill="#233761"/>
<path d="M354.141 73.9272L414.462 136.067V73.9272L474.782 73.9272L414.462 11.7874H354.141V73.9272Z" fill="#193559"/>
<path d="M354.141 -20.1074V11.7874L474.783 11.7874V-20.1074L354.141 -20.1074Z" fill="#233761"/>
<path d="M354.141 -4.15997L414.462 11.7874V-4.15997L474.782 -4.15997L414.462 -20.1074H354.141V-4.15997Z" fill="#193559"/>
<path d="M474.783 260.346V384.626H595.424V260.346L474.783 260.346Z" fill="#233761"/>
<path d="M474.782 322.486L535.103 384.626V322.486H595.424L535.103 260.346H474.783L474.782 322.486Z" fill="#193559"/>
<path d="M474.783 136.067V260.346L595.424 260.346V136.067H474.783Z" fill="#233761"/>
<path d="M474.782 198.207L535.103 260.346V198.207H595.424L535.103 136.067H474.783L474.782 198.207Z" fill="#193559"/>
<path d="M474.783 11.7874V136.067H595.424V11.7874H474.783Z" fill="#233761"/>
<path d="M474.782 73.9272L535.103 136.067V73.9272H595.424L535.103 11.7874H474.783L474.782 73.9272Z" fill="#193559"/>
<path d="M474.783 -20.1074V11.7874H595.424V-20.1074H474.783Z" fill="#233761"/>
<path d="M474.782 -4.15997L535.103 11.7874V-4.15997H595.424L535.103 -20.1074H474.783L474.782 -4.15997Z" fill="#193559"/>
<path d="M595.424 260.346V384.626H716.066V260.346H595.424Z" fill="#233761"/>
<path d="M595.424 322.486L655.745 384.626V322.486H716.066L655.745 260.346H595.424V322.486Z" fill="#193559"/>
<path d="M595.424 136.067V260.346H716.066V136.067L595.424 136.067Z" fill="#233761"/>
<path d="M595.424 198.207L655.745 260.346V198.207L716.066 198.207L655.745 136.067H595.424V198.207Z" fill="#193559"/>
<path d="M595.424 11.7874V136.067L716.066 136.067V11.7874H595.424Z" fill="#233761"/>
<path d="M595.424 73.9272L655.745 136.067V73.9272H716.066L655.745 11.7874H595.424V73.9272Z" fill="#193559"/>
<path d="M595.424 -20.1074V11.7874H716.066V-20.1074H595.424Z" fill="#233761"/>
<path d="M595.424 -4.15997L655.745 11.7874V-4.15997H716.066L655.745 -20.1074H595.424V-4.15997Z" fill="#193559"/>
<path d="M-7.78418 260.346L-7.78418 384.626H112.857L112.857 260.346H-7.78418Z" fill="#233761"/>
<path d="M-7.78418 322.486L52.5367 384.626L52.5367 322.486H112.857L52.5367 260.346H-7.78418L-7.78418 322.486Z" fill="#193559"/>
<path d="M112.857 260.346L112.857 384.626H233.499V260.346H112.857Z" fill="#233761"/>
<path d="M112.857 322.486L173.178 384.626V322.486H233.499L173.178 260.346H112.857L112.857 322.486Z" fill="#193559"/>
<path d="M233.499 260.346V384.626H354.141V260.346H233.499Z" fill="#233761"/>
<path d="M233.499 322.486L293.82 384.626V322.486H354.141L293.82 260.346H233.499L233.499 322.486Z" fill="#193559"/>
<path d="M354.141 260.346V384.626L474.783 384.626V260.346H354.141Z" fill="#233761"/>
<path d="M354.141 322.486L414.462 384.626V322.486H474.782L414.462 260.346H354.141V322.486Z" fill="#193559"/>
<path d="M474.783 260.346V384.626H595.424V260.346L474.783 260.346Z" fill="#233761"/>
<path d="M474.782 322.486L535.103 384.626V322.486H595.424L535.103 260.346H474.783L474.782 322.486Z" fill="#193559"/>
<path d="M595.424 260.346V384.626H694.713V260.346H595.424Z" fill="#233761"/>
<path d="M595.424 322.486L645.069 384.626V322.486H694.713L645.069 260.346H595.424V322.486Z" fill="#193559"/>
</svg>
