<svg width="32" height="32" viewBox="0 0 32 32" fill="none" xmlns="http://www.w3.org/2000/svg">
<path d="M18.9785 18.6719C19.7077 17.9427 20.1174 16.9537 20.1174 15.9224C20.1174 14.8912 19.7077 13.9022 18.9785 13.173C18.2493 12.4438 17.2603 12.0342 16.2291 12.0342C15.1979 12.0342 14.2089 12.4438 13.4797 13.173C12.7505 13.9022 12.3408 14.8912 12.3408 15.9224C12.3408 16.9537 12.7505 17.9427 13.4797 18.6719C14.2089 19.4011 15.1979 19.8107 16.2291 19.8107C17.2603 19.8107 18.2493 19.4011 18.9785 18.6719Z" stroke="white" stroke-width="2.59218" stroke-linecap="round" stroke-linejoin="round"/>
<path d="M3.86133 15.9222C5.51255 10.664 10.426 6.84961 16.2286 6.84961C22.0325 6.84961 26.9447 10.664 28.5959 15.9222C26.9447 21.1805 22.0325 24.9949 16.2286 24.9949C10.426 24.9949 5.51255 21.1805 3.86133 15.9222Z" stroke="white" stroke-width="2.59218" stroke-linecap="round" stroke-linejoin="round"/>
</svg>
