<svg width="25" height="25" viewBox="0 0 25 25" fill="none" xmlns="http://www.w3.org/2000/svg">
<path fill-rule="evenodd" clip-rule="evenodd" d="M25 12.5755C25 5.63091 19.4029 0 12.5 0C5.5971 0 0 5.63091 0 12.5755C0 18.852 4.57031 24.0546 10.5469 24.9989V16.2117H7.37221V12.5755H10.5469V9.80497C10.5469 6.65379 12.4135 4.91175 15.2684 4.91175C16.6362 4.91175 18.067 5.15764 18.067 5.15764V8.25268H16.49C14.9381 8.25268 14.4526 9.22167 14.4526 10.2176V12.5755H17.9191L17.3655 16.2117H14.4531V25C20.4297 24.0563 25 18.8537 25 12.5755V12.5755Z" fill="#0E0F1D"/>
</svg>
