<svg width="25" height="25" viewBox="0 0 25 25" fill="none" xmlns="http://www.w3.org/2000/svg">
<path d="M23.0005 0H2.13616C0.996092 0 0 0.820312 0 1.94699V22.8577C0 23.9905 0.996092 25 2.13616 25H22.9944C24.1406 25 25 23.9838 25 22.8577V1.94699C25.0067 0.820312 24.1406 0 23.0005 0ZM7.74943 20.8387H4.16796V9.70312H7.74943V20.8387ZM6.08258 8.01004H6.05691C4.91071 8.01004 4.16852 7.15681 4.16852 6.08873C4.16852 5.00112 4.93024 4.16797 6.10211 4.16797C7.27398 4.16797 7.99106 4.99498 8.01673 6.08873C8.01617 7.15681 7.27398 8.01004 6.08258 8.01004ZM20.8387 20.8387H17.2572V14.75C17.2572 13.2913 16.736 12.2946 15.4403 12.2946C14.4503 12.2946 13.8644 12.9643 13.6038 13.6166C13.5061 13.851 13.4799 14.1702 13.4799 14.4961V20.8387H9.89842V9.70312H13.4799V11.2528C14.0011 10.5106 14.8153 9.44252 16.7098 9.44252C19.0608 9.44252 20.8393 10.9922 20.8393 14.3331L20.8387 20.8387Z" fill="#0E0F1D"/>
</svg>
