<svg width="39" height="38" viewBox="0 0 39 38" fill="none" xmlns="http://www.w3.org/2000/svg">
<path d="M7.52415 7.59961H32.6992C35.0742 7.59961 36.2711 8.72061 36.2711 11.0006V26.9986C36.2711 29.2596 35.0742 30.3996 32.6992 30.3996H7.52415C5.14915 30.3996 3.95215 29.2596 3.95215 26.9986V11.0006C3.95215 8.72061 5.14915 7.59961 7.52415 7.59961ZM20.1021 23.9396L32.9081 13.4326C33.3641 13.0526 33.7251 12.1786 33.1551 11.3996C32.6041 10.6206 31.5971 10.6016 30.9321 11.0766L20.1021 18.4106L9.29115 11.0766C8.62615 10.6016 7.61915 10.6206 7.06815 11.3996C6.49815 12.1786 6.85915 13.0526 7.31515 13.4326L20.1021 23.9396Z" fill="#0E0F1D"/>
</svg>
