<svg width="30" height="30" viewBox="0 0 30 30" fill="none" xmlns="http://www.w3.org/2000/svg">
<path d="M15.0276 5.95675C15.6806 5.2164 16.5436 4.69246 17.5017 4.45465C18.4599 4.21684 19.4677 4.27644 20.3911 4.6255C21.3145 4.97457 22.1098 5.59656 22.671 6.40871C23.2323 7.22086 23.5329 8.18466 23.5329 9.17186C23.5329 10.1591 23.2323 11.1229 22.671 11.935C22.1098 12.7472 21.3145 13.3691 20.3911 13.7182C19.4677 14.0673 18.4599 14.1269 17.5017 13.8891C16.5436 13.6513 15.6806 13.1273 15.0276 12.387M18.6728 26.183H4.0918V24.9679C4.0918 23.0344 4.8599 21.18 6.22714 19.8128C7.59437 18.4456 9.44874 17.6774 11.3823 17.6774C13.3159 17.6774 15.1702 18.4456 16.5375 19.8128C17.9047 21.18 18.6728 23.0344 18.6728 24.9679V26.183ZM18.6728 26.183H25.9633V24.9679C25.9635 23.6881 25.6268 22.4308 24.9869 21.3223C24.3471 20.2139 23.4268 19.2934 22.3185 18.6534C21.2102 18.0134 19.9529 17.6765 18.6731 17.6764C17.3932 17.6764 16.1359 18.0132 15.0276 18.6532M16.2426 9.17186C16.2426 10.4609 15.7306 11.6971 14.8191 12.6086C13.9076 13.5201 12.6713 14.0322 11.3823 14.0322C10.0933 14.0322 8.85701 13.5201 7.94552 12.6086C7.03403 11.6971 6.52196 10.4609 6.52196 9.17186C6.52196 7.88282 7.03403 6.64657 7.94552 5.73508C8.85701 4.82359 10.0933 4.31152 11.3823 4.31152C12.6713 4.31152 13.9076 4.82359 14.8191 5.73508C15.7306 6.64657 16.2426 7.88282 16.2426 9.17186Z" stroke="white" stroke-width="2.59218" stroke-linecap="round" stroke-linejoin="round"/>
</svg>
