<svg width="39" height="38" viewBox="0 0 39 38" fill="none" xmlns="http://www.w3.org/2000/svg">
<path d="M5.30684 8.54258L9.25899 4.59414C9.53777 4.31413 9.86914 4.09195 10.234 3.94039C10.599 3.78882 10.9902 3.71084 11.3854 3.71094C12.1906 3.71094 12.9477 4.02637 13.5154 4.59414L17.7682 8.84687C18.0482 9.12566 18.2703 9.45703 18.4219 9.82194C18.5735 10.1868 18.6515 10.5781 18.6514 10.9732C18.6514 11.7785 18.3359 12.5355 17.7682 13.1033L14.6584 16.2131C15.3863 17.8175 16.3984 19.2772 17.6457 20.5215C18.8899 21.7718 20.3494 22.7876 21.9541 23.5199L25.0639 20.4102C25.3427 20.1301 25.674 19.908 26.0389 19.7564C26.4038 19.6048 26.7951 19.5269 27.1902 19.527C27.9955 19.527 28.7525 19.8424 29.3203 20.4102L33.5768 24.6592C33.8571 24.9385 34.0795 25.2705 34.2311 25.636C34.3826 26.0016 34.4604 26.3935 34.46 26.7893C34.46 27.5945 34.1445 28.3516 33.5768 28.9193L29.632 32.8641C28.7266 33.7732 27.476 34.2891 26.192 34.2891C25.9211 34.2891 25.6613 34.2668 25.4053 34.2223C20.4029 33.3984 15.4414 30.7377 11.4373 26.7373C7.43691 22.7406 4.77988 17.7828 3.94492 12.7656C3.69258 11.233 4.20098 9.65586 5.30684 8.54258V8.54258Z" fill="#0E0F1D"/>
</svg>
