<svg width="30" height="30" viewBox="0 0 30 30" fill="none" xmlns="http://www.w3.org/2000/svg">
<rect width="30" height="30" rx="15" fill="#FE5349"/>
<path d="M16.25 18.8H13.8C13.7 18.1333 13.6083 17.3417 13.525 16.425C13.4417 15.4917 13.375 14.4917 13.325 13.425C13.275 12.3583 13.25 11.2833 13.25 10.2V6H16.85V10.2C16.85 11.3 16.825 12.3917 16.775 13.475C16.725 14.5417 16.65 15.5417 16.55 16.475C16.4667 17.3917 16.3667 18.1667 16.25 18.8ZM15.05 24.6C14.4833 24.6 14 24.4083 13.6 24.025C13.2 23.625 13 23.1583 13 22.625C13 22.0583 13.2 21.5833 13.6 21.2C14 20.8167 14.4833 20.625 15.05 20.625C15.5833 20.625 16.05 20.8167 16.45 21.2C16.85 21.5833 17.05 22.0583 17.05 22.625C17.05 23.1583 16.85 23.625 16.45 24.025C16.05 24.4083 15.5833 24.6 15.05 24.6Z" fill="white"/>
</svg>
