<svg width="814" height="814" viewBox="0 0 814 814" fill="none" xmlns="http://www.w3.org/2000/svg">
<circle cx="407.5" cy="391.5" r="310.5" fill="#FFC857"/>
<mask id="path-3-outside-1" maskUnits="userSpaceOnUse" x="20.3539" y="162.144" width="761.711" height="446.421" fill="white">
<rect fill="white" x="20.3539" y="162.144" width="761.711" height="446.421"/>
<path d="M57.9811 471.208C52.0702 473.208 48.2944 471.783 46.6537 466.933C46.0384 465.114 46.4117 463.721 47.7735 462.753C47.8738 462.551 48.0755 462.398 48.3786 462.295C49.6469 463.049 51.4935 463.015 53.9185 462.195C56.4951 461.323 60.4602 459.813 65.8139 457.664C66.4259 436.006 69.9905 424.074 76.5077 421.87C79.0842 420.998 80.8596 422.002 81.8337 424.882C81.4596 431.765 81.372 440.493 81.5708 451.067C96.0115 444.324 105.505 440.183 110.052 438.645C111.265 438.235 112.076 438.636 112.486 439.849C113.307 442.274 112.125 444.024 108.943 445.101C107.275 445.665 98.1895 450.512 81.6849 459.643C82.5293 501.584 86.9251 534.3 94.8722 557.792C102.819 581.285 111.491 591.441 120.888 588.263C124.677 586.981 127.675 584.109 129.881 579.646C132.139 575.336 133.412 571.358 133.699 567.714C133.741 565.841 134.876 564.951 137.102 565.042C138.114 565.038 138.571 565.39 138.473 566.099C138.23 568.377 137.863 571.035 137.37 574.073C136.878 577.111 135.302 581.191 132.643 586.313C129.984 591.435 126.609 594.688 122.517 596.073C104.481 602.174 90.1562 589.538 79.543 558.164C70.5705 531.641 65.9085 501.632 65.557 468.139C63.5377 469.16 61.0124 470.183 57.9811 471.208Z"/>
<path d="M162.738 545.476C150.31 549.68 140.788 542.006 134.174 522.455C130.227 510.784 128.774 497.003 129.816 481.111C131.235 458.842 137.257 441.941 147.881 430.408C152.464 425.48 157.18 422.196 162.03 420.555C166.88 418.914 171.028 418.693 174.474 419.892C178.071 421.04 180.608 422.547 182.083 424.412L184.447 426.906C184.864 429.637 184.012 431.361 181.89 432.079C179.465 432.899 177.846 432.855 177.032 431.948C176.319 430.838 175.607 429.981 174.895 429.377C174.133 428.622 172.688 427.844 170.559 427.044C168.379 426.092 166.228 425.975 164.106 426.693C154.255 430.026 148.312 441.917 146.278 462.368C144.106 485.905 146.07 506.691 152.172 524.727C155.248 533.821 158.605 537.753 162.242 536.522C165.122 535.548 168.062 531.007 171.062 522.898C174.162 514.586 176.951 504.606 179.429 492.958C183.792 472.902 187.004 455.685 189.065 441.306C190.527 428.65 193.986 421.399 199.442 419.554C202.322 418.579 204.351 419.835 205.53 423.321C205.14 426.662 204.782 431.344 204.454 437.367C204.127 443.389 204.886 454.871 206.733 471.813C208.579 488.755 212.143 505.031 217.424 520.642C222.705 536.253 227.694 543.264 232.393 541.674C234.212 541.059 235.597 539.662 236.548 537.482C237.551 535.453 238.121 532.643 238.256 529.05C238.147 527.229 238.926 526.036 240.593 525.472C241.199 525.267 241.731 525.341 242.188 525.693C242.645 526.045 242.901 526.803 242.957 527.966C243.013 529.13 242.97 530.749 242.827 532.824C242.736 535.051 241.94 538.191 240.44 542.246C239.092 546.249 237.054 548.712 234.326 549.635C227.96 551.788 221.624 549.287 215.318 542.13C209.164 534.922 204.164 525.634 200.319 514.267C196.473 502.9 193.615 491.705 191.745 480.684L189.471 481.453C181.349 520.853 172.438 542.194 162.738 545.476Z"/>
<path d="M298.745 468.556C292.439 449.914 287.876 425.192 285.057 394.391C284.999 392.722 284.314 392.194 283.001 392.807C281.991 393.317 281.16 394.105 280.507 395.171C275.735 403.034 271.897 415.903 268.991 433.777C266.085 451.65 264.335 467.697 263.741 481.918C263.095 495.987 263.131 504.082 263.849 506.204C264.464 508.023 263.635 509.317 261.362 510.086C256.815 511.624 252.516 506.406 248.466 494.433C240.775 471.698 236.127 450.468 234.521 430.743C232.864 410.865 235.294 399.824 241.811 397.62C244.691 396.646 246.669 397.75 247.746 400.933C248.208 425.268 250.846 449.543 255.66 473.757L257.706 473.065C260.792 416.281 270.747 385.044 287.571 379.353C294.846 376.892 299.688 379.223 302.098 386.347C302.153 409.975 304.075 432.634 307.865 454.323L309.684 453.708C311.096 441.407 312.842 430.09 314.921 419.759C317.101 409.225 320.344 399.092 324.652 389.358C328.909 379.473 333.766 373.607 339.222 371.761C346.497 369.3 351.314 371.556 353.672 378.527C354.661 407.414 359.359 434.285 367.768 459.142C373.203 475.207 378.345 482.42 383.195 480.779C384.862 480.215 386.273 478.893 387.428 476.814C388.633 474.885 389.539 473.819 390.146 473.614C392.267 472.896 392.756 474.589 391.61 478.692C391.363 479.958 390.486 481.86 388.979 484.396C387.624 486.881 385.961 488.457 383.991 489.124C378.08 491.123 372.048 488.519 365.893 481.311C359.942 474.204 354.736 464.057 350.275 450.871C342.431 427.682 337.96 406.476 336.862 387.254C336.806 386.091 336.248 385.689 335.187 386.047C334.329 386.507 333.573 387.269 332.92 388.334C326.794 398.683 321.835 415.731 318.045 439.478C314.203 463.074 312.898 476.69 314.128 480.327C314.744 482.146 313.839 483.466 311.414 484.286C307.018 485.773 302.795 480.53 298.745 468.556Z"/>
<path d="M440.024 428.364C443.1 437.458 447.063 441.185 451.913 439.544C458.127 437.442 462.128 426.799 463.914 407.614C466.093 385.595 464.363 366.249 458.723 349.578C454.877 338.21 449.999 333.527 444.088 335.526C438.177 337.526 433.149 344.632 429.004 356.844C424.959 368.853 422.234 381.768 420.828 395.587C419.422 409.406 418.39 421.832 417.731 432.865C417.172 443.696 417.072 449.641 417.43 450.702C418.2 452.976 417.447 454.497 415.174 455.266C410.627 456.804 406.303 451.511 402.201 439.386C394.049 415.287 388.296 390.293 384.943 364.402C381.538 338.36 380.709 316.936 382.455 300.13C384.151 283.172 387.878 273.719 393.638 271.771C396.063 270.951 397.685 271.753 398.506 274.178C396.472 294.628 396.703 318.281 399.201 345.137C401.85 371.942 405.503 396.971 410.161 420.225L411.752 419.686C412.725 399.595 415.299 380.989 419.473 363.869C421.808 354.296 425.011 346.287 429.08 339.843C433.25 333.196 437.988 328.976 443.292 327.181C454.053 323.541 463.08 328.257 470.374 341.329C472.668 345.114 474.584 349.279 476.122 353.826C479.916 365.042 481.618 378.063 481.229 392.89C480.766 413.991 476.003 429.368 466.938 439.022C463.867 442.425 460.285 444.819 456.193 446.204C445.887 449.69 438.426 444.613 433.812 430.972C431.351 423.697 430.501 414.695 431.263 403.965C432.125 393.032 435.046 384.19 440.025 377.439C441.132 376.219 442.372 376.138 443.743 377.194C444.15 377.901 444.254 378.457 444.054 378.863C439.832 385.358 437.541 393.565 437.181 403.483C436.82 413.402 437.768 421.696 440.024 428.364Z"/>
<path d="M546.115 418.065C527.473 424.371 513.819 414.717 505.154 389.103C500.284 374.705 499.05 359.076 501.454 342.216C504.547 320.901 512.459 308.09 525.19 303.783C527.009 303.168 528.679 303.11 530.199 303.609C531.719 304.108 533.014 305.19 534.084 306.855C524.535 310.086 518.864 320.534 517.071 338.2C515.278 355.866 516.893 372.126 521.918 386.979C528.019 405.015 535.996 412.367 545.847 409.034C551.455 407.137 555.854 400.919 559.046 390.381C562.186 379.691 563.368 366.708 562.591 351.431C561.966 336.103 559.27 321.391 554.502 307.296L553.579 304.568C547.855 303.126 542.708 300.644 538.139 297.123C533.569 293.601 530.926 290.78 530.208 288.658C529.49 286.536 529.733 284.258 530.937 281.824C532.24 279.187 533.877 277.535 535.848 276.869C538.727 275.895 542.403 277.523 546.874 281.753C551.346 285.983 555.214 291.177 558.48 297.336C564.255 298.929 568.885 299.136 572.371 297.957C576.009 296.726 578.684 295.146 580.395 293.216C581.113 295.338 580.996 297.489 580.044 299.668C579.093 301.848 577.026 303.477 573.843 304.553C570.66 305.63 566.766 306.103 562.161 305.971C566.932 320.573 569.682 335.942 570.411 352.079C571.141 368.216 569.409 382.568 565.214 395.135C560.969 407.55 554.602 415.193 546.115 418.065Z"/>
<path d="M655.909 415.633C647.118 418.607 639.037 416.189 631.666 408.379C624.446 400.518 617.709 387.342 611.454 368.852C605.199 350.361 600.518 327.537 597.412 300.381C594.306 273.224 593.57 250.079 595.206 230.946C596.992 211.762 600.614 201.247 606.07 199.401C608.647 198.53 610.447 199.609 611.473 202.641C610.751 210.992 610.452 223.339 610.575 239.682C610.647 255.872 611.118 270.746 611.988 284.302C613.01 297.807 614.976 313.356 617.888 330.951C620.951 348.495 624.508 363.253 628.559 375.227C632.558 387.049 636.771 395.758 641.198 401.354C645.827 407.051 650.188 409.207 654.281 407.823C657.766 406.644 660.537 403.849 662.592 399.438C664.698 395.178 665.895 391.226 666.182 387.582C666.376 385.658 667.586 384.742 669.813 384.834C670.673 384.88 671.03 385.435 670.883 386.498C670.938 387.662 670.768 389.155 670.371 390.979C670.126 392.751 669.481 395.587 668.436 399.487C666.299 408.149 662.123 413.531 655.909 415.633Z"/>
<path d="M690.025 367.102C677.596 371.306 668.075 363.632 661.461 344.081C657.513 332.41 656.061 318.629 657.103 302.737C658.522 280.468 664.544 263.567 675.168 252.034C679.751 247.106 684.467 243.822 689.317 242.181C694.167 240.54 698.315 240.319 701.761 241.518C705.358 242.666 707.895 244.173 709.37 246.038L711.734 248.532C712.151 251.263 711.299 252.987 709.177 253.704C706.752 254.525 705.132 254.481 704.319 253.574C703.606 252.464 702.893 251.607 702.182 251.003C701.42 250.248 699.975 249.47 697.846 248.67C695.666 247.718 693.515 247.601 691.393 248.319C681.542 251.652 675.599 263.543 673.565 283.993C671.393 307.531 673.357 328.317 679.459 346.353C682.535 355.447 685.892 359.379 689.529 358.148C692.409 357.174 695.349 352.632 698.348 344.524C701.448 336.212 704.237 326.232 706.716 314.584C711.079 294.528 714.291 277.31 716.352 262.932C717.814 250.276 721.272 243.025 726.729 241.18C729.608 240.205 731.638 241.461 732.817 244.947C732.427 248.288 732.069 252.97 731.741 258.993C731.414 265.015 732.173 276.497 734.02 293.439C735.866 310.381 739.43 326.657 744.711 342.268C749.992 357.879 754.981 364.89 759.68 363.3C761.498 362.685 762.884 361.287 763.835 359.108C764.838 357.079 765.408 354.269 765.543 350.676C765.434 348.855 766.213 347.662 767.88 347.098C768.486 346.893 769.018 346.967 769.475 347.319C769.932 347.671 770.188 348.429 770.244 349.592C770.3 350.756 770.256 352.375 770.114 354.45C770.023 356.677 769.227 359.817 767.727 363.872C766.379 367.875 764.341 370.338 761.613 371.261C755.247 373.414 748.911 370.913 742.605 363.756C736.451 356.548 731.451 347.26 727.606 335.893C723.76 324.526 720.902 313.331 719.032 302.31L716.758 303.079C708.636 342.479 699.725 363.82 690.025 367.102Z"/>
</mask>
<path d="M57.9811 471.208C52.0702 473.208 48.2944 471.783 46.6537 466.933C46.0384 465.114 46.4117 463.721 47.7735 462.753C47.8738 462.551 48.0755 462.398 48.3786 462.295C49.6469 463.049 51.4935 463.015 53.9185 462.195C56.4951 461.323 60.4602 459.813 65.8139 457.664C66.4259 436.006 69.9905 424.074 76.5077 421.87C79.0842 420.998 80.8596 422.002 81.8337 424.882C81.4596 431.765 81.372 440.493 81.5708 451.067C96.0115 444.324 105.505 440.183 110.052 438.645C111.265 438.235 112.076 438.636 112.486 439.849C113.307 442.274 112.125 444.024 108.943 445.101C107.275 445.665 98.1895 450.512 81.6849 459.643C82.5293 501.584 86.9251 534.3 94.8722 557.792C102.819 581.285 111.491 591.441 120.888 588.263C124.677 586.981 127.675 584.109 129.881 579.646C132.139 575.336 133.412 571.358 133.699 567.714C133.741 565.841 134.876 564.951 137.102 565.042C138.114 565.038 138.571 565.39 138.473 566.099C138.23 568.377 137.863 571.035 137.37 574.073C136.878 577.111 135.302 581.191 132.643 586.313C129.984 591.435 126.609 594.688 122.517 596.073C104.481 602.174 90.1562 589.538 79.543 558.164C70.5705 531.641 65.9085 501.632 65.557 468.139C63.5377 469.16 61.0124 470.183 57.9811 471.208Z" fill="white"/>
<path d="M162.738 545.476C150.31 549.68 140.788 542.006 134.174 522.455C130.227 510.784 128.774 497.003 129.816 481.111C131.235 458.842 137.257 441.941 147.881 430.408C152.464 425.48 157.18 422.196 162.03 420.555C166.88 418.914 171.028 418.693 174.474 419.892C178.071 421.04 180.608 422.547 182.083 424.412L184.447 426.906C184.864 429.637 184.012 431.361 181.89 432.079C179.465 432.899 177.846 432.855 177.032 431.948C176.319 430.838 175.607 429.981 174.895 429.377C174.133 428.622 172.688 427.844 170.559 427.044C168.379 426.092 166.228 425.975 164.106 426.693C154.255 430.026 148.312 441.917 146.278 462.368C144.106 485.905 146.07 506.691 152.172 524.727C155.248 533.821 158.605 537.753 162.242 536.522C165.122 535.548 168.062 531.007 171.062 522.898C174.162 514.586 176.951 504.606 179.429 492.958C183.792 472.902 187.004 455.685 189.065 441.306C190.527 428.65 193.986 421.399 199.442 419.554C202.322 418.579 204.351 419.835 205.53 423.321C205.14 426.662 204.782 431.344 204.454 437.367C204.127 443.389 204.886 454.871 206.733 471.813C208.579 488.755 212.143 505.031 217.424 520.642C222.705 536.253 227.694 543.264 232.393 541.674C234.212 541.059 235.597 539.662 236.548 537.482C237.551 535.453 238.121 532.643 238.256 529.05C238.147 527.229 238.926 526.036 240.593 525.472C241.199 525.267 241.731 525.341 242.188 525.693C242.645 526.045 242.901 526.803 242.957 527.966C243.013 529.13 242.97 530.749 242.827 532.824C242.736 535.051 241.94 538.191 240.44 542.246C239.092 546.249 237.054 548.712 234.326 549.635C227.96 551.788 221.624 549.287 215.318 542.13C209.164 534.922 204.164 525.634 200.319 514.267C196.473 502.9 193.615 491.705 191.745 480.684L189.471 481.453C181.349 520.853 172.438 542.194 162.738 545.476Z" fill="white"/>
<path d="M298.745 468.556C292.439 449.914 287.876 425.192 285.057 394.391C284.999 392.722 284.314 392.194 283.001 392.807C281.991 393.317 281.16 394.105 280.507 395.171C275.735 403.034 271.897 415.903 268.991 433.777C266.085 451.65 264.335 467.697 263.741 481.918C263.095 495.987 263.131 504.082 263.849 506.204C264.464 508.023 263.635 509.317 261.362 510.086C256.815 511.624 252.516 506.406 248.466 494.433C240.775 471.698 236.127 450.468 234.521 430.743C232.864 410.865 235.294 399.824 241.811 397.62C244.691 396.646 246.669 397.75 247.746 400.933C248.208 425.268 250.846 449.543 255.66 473.757L257.706 473.065C260.792 416.281 270.747 385.044 287.571 379.353C294.846 376.892 299.688 379.223 302.098 386.347C302.153 409.975 304.075 432.634 307.865 454.323L309.684 453.708C311.096 441.407 312.842 430.09 314.921 419.759C317.101 409.225 320.344 399.092 324.652 389.358C328.909 379.473 333.766 373.607 339.222 371.761C346.497 369.3 351.314 371.556 353.672 378.527C354.661 407.414 359.359 434.285 367.768 459.142C373.203 475.207 378.345 482.42 383.195 480.779C384.862 480.215 386.273 478.893 387.428 476.814C388.633 474.885 389.539 473.819 390.146 473.614C392.267 472.896 392.756 474.589 391.61 478.692C391.363 479.958 390.486 481.86 388.979 484.396C387.624 486.881 385.961 488.457 383.991 489.124C378.08 491.123 372.048 488.519 365.893 481.311C359.942 474.204 354.736 464.057 350.275 450.871C342.431 427.682 337.96 406.476 336.862 387.254C336.806 386.091 336.248 385.689 335.187 386.047C334.329 386.507 333.573 387.269 332.92 388.334C326.794 398.683 321.835 415.731 318.045 439.478C314.203 463.074 312.898 476.69 314.128 480.327C314.744 482.146 313.839 483.466 311.414 484.286C307.018 485.773 302.795 480.53 298.745 468.556Z" fill="white"/>
<path d="M440.024 428.364C443.1 437.458 447.063 441.185 451.913 439.544C458.127 437.442 462.128 426.799 463.914 407.614C466.093 385.595 464.363 366.249 458.723 349.578C454.877 338.21 449.999 333.527 444.088 335.526C438.177 337.526 433.149 344.632 429.004 356.844C424.959 368.853 422.234 381.768 420.828 395.587C419.422 409.406 418.39 421.832 417.731 432.865C417.172 443.696 417.072 449.641 417.43 450.702C418.2 452.976 417.447 454.497 415.174 455.266C410.627 456.804 406.303 451.511 402.201 439.386C394.049 415.287 388.296 390.293 384.943 364.402C381.538 338.36 380.709 316.936 382.455 300.13C384.151 283.172 387.878 273.719 393.638 271.771C396.063 270.951 397.685 271.753 398.506 274.178C396.472 294.628 396.703 318.281 399.201 345.137C401.85 371.942 405.503 396.971 410.161 420.225L411.752 419.686C412.725 399.595 415.299 380.989 419.473 363.869C421.808 354.296 425.011 346.287 429.08 339.843C433.25 333.196 437.988 328.976 443.292 327.181C454.053 323.541 463.08 328.257 470.374 341.329C472.668 345.114 474.584 349.279 476.122 353.826C479.916 365.042 481.618 378.063 481.229 392.89C480.766 413.991 476.003 429.368 466.938 439.022C463.867 442.425 460.285 444.819 456.193 446.204C445.887 449.69 438.426 444.613 433.812 430.972C431.351 423.697 430.501 414.695 431.263 403.965C432.125 393.032 435.046 384.19 440.025 377.439C441.132 376.219 442.372 376.138 443.743 377.194C444.15 377.901 444.254 378.457 444.054 378.863C439.832 385.358 437.541 393.565 437.181 403.483C436.82 413.402 437.768 421.696 440.024 428.364Z" fill="white"/>
<path d="M546.115 418.065C527.473 424.371 513.819 414.717 505.154 389.103C500.284 374.705 499.05 359.076 501.454 342.216C504.547 320.901 512.459 308.09 525.19 303.783C527.009 303.168 528.679 303.11 530.199 303.609C531.719 304.108 533.014 305.19 534.084 306.855C524.535 310.086 518.864 320.534 517.071 338.2C515.278 355.866 516.893 372.126 521.918 386.979C528.019 405.015 535.996 412.367 545.847 409.034C551.455 407.137 555.854 400.919 559.046 390.381C562.186 379.691 563.368 366.708 562.591 351.431C561.966 336.103 559.27 321.391 554.502 307.296L553.579 304.568C547.855 303.126 542.708 300.644 538.139 297.123C533.569 293.601 530.926 290.78 530.208 288.658C529.49 286.536 529.733 284.258 530.937 281.824C532.24 279.187 533.877 277.535 535.848 276.869C538.727 275.895 542.403 277.523 546.874 281.753C551.346 285.983 555.214 291.177 558.48 297.336C564.255 298.929 568.885 299.136 572.371 297.957C576.009 296.726 578.684 295.146 580.395 293.216C581.113 295.338 580.996 297.489 580.044 299.668C579.093 301.848 577.026 303.477 573.843 304.553C570.66 305.63 566.766 306.103 562.161 305.971C566.932 320.573 569.682 335.942 570.411 352.079C571.141 368.216 569.409 382.568 565.214 395.135C560.969 407.55 554.602 415.193 546.115 418.065Z" fill="white"/>
<path d="M655.909 415.633C647.118 418.607 639.037 416.189 631.666 408.379C624.446 400.518 617.709 387.342 611.454 368.852C605.199 350.361 600.518 327.537 597.412 300.381C594.306 273.224 593.57 250.079 595.206 230.946C596.992 211.762 600.614 201.247 606.07 199.401C608.647 198.53 610.447 199.609 611.473 202.641C610.751 210.992 610.452 223.339 610.575 239.682C610.647 255.872 611.118 270.746 611.988 284.302C613.01 297.807 614.976 313.356 617.888 330.951C620.951 348.495 624.508 363.253 628.559 375.227C632.558 387.049 636.771 395.758 641.198 401.354C645.827 407.051 650.188 409.207 654.281 407.823C657.766 406.644 660.537 403.849 662.592 399.438C664.698 395.178 665.895 391.226 666.182 387.582C666.376 385.658 667.586 384.742 669.813 384.834C670.673 384.88 671.03 385.435 670.883 386.498C670.938 387.662 670.768 389.155 670.371 390.979C670.126 392.751 669.481 395.587 668.436 399.487C666.299 408.149 662.123 413.531 655.909 415.633Z" fill="white"/>
<path d="M690.025 367.102C677.596 371.306 668.075 363.632 661.461 344.081C657.513 332.41 656.061 318.629 657.103 302.737C658.522 280.468 664.544 263.567 675.168 252.034C679.751 247.106 684.467 243.822 689.317 242.181C694.167 240.54 698.315 240.319 701.761 241.518C705.358 242.666 707.895 244.173 709.37 246.038L711.734 248.532C712.151 251.263 711.299 252.987 709.177 253.704C706.752 254.525 705.132 254.481 704.319 253.574C703.606 252.464 702.893 251.607 702.182 251.003C701.42 250.248 699.975 249.47 697.846 248.67C695.666 247.718 693.515 247.601 691.393 248.319C681.542 251.652 675.599 263.543 673.565 283.993C671.393 307.531 673.357 328.317 679.459 346.353C682.535 355.447 685.892 359.379 689.529 358.148C692.409 357.174 695.349 352.632 698.348 344.524C701.448 336.212 704.237 326.232 706.716 314.584C711.079 294.528 714.291 277.31 716.352 262.932C717.814 250.276 721.272 243.025 726.729 241.18C729.608 240.205 731.638 241.461 732.817 244.947C732.427 248.288 732.069 252.97 731.741 258.993C731.414 265.015 732.173 276.497 734.02 293.439C735.866 310.381 739.43 326.657 744.711 342.268C749.992 357.879 754.981 364.89 759.68 363.3C761.498 362.685 762.884 361.287 763.835 359.108C764.838 357.079 765.408 354.269 765.543 350.676C765.434 348.855 766.213 347.662 767.88 347.098C768.486 346.893 769.018 346.967 769.475 347.319C769.932 347.671 770.188 348.429 770.244 349.592C770.3 350.756 770.256 352.375 770.114 354.45C770.023 356.677 769.227 359.817 767.727 363.872C766.379 367.875 764.341 370.338 761.613 371.261C755.247 373.414 748.911 370.913 742.605 363.756C736.451 356.548 731.451 347.26 727.606 335.893C723.76 324.526 720.902 313.331 719.032 302.31L716.758 303.079C708.636 342.479 699.725 363.82 690.025 367.102Z" fill="white"/>
<path d="M57.9811 471.208C52.0702 473.208 48.2944 471.783 46.6537 466.933C46.0384 465.114 46.4117 463.721 47.7735 462.753C47.8738 462.551 48.0755 462.398 48.3786 462.295C49.6469 463.049 51.4935 463.015 53.9185 462.195C56.4951 461.323 60.4602 459.813 65.8139 457.664C66.4259 436.006 69.9905 424.074 76.5077 421.87C79.0842 420.998 80.8596 422.002 81.8337 424.882C81.4596 431.765 81.372 440.493 81.5708 451.067C96.0115 444.324 105.505 440.183 110.052 438.645C111.265 438.235 112.076 438.636 112.486 439.849C113.307 442.274 112.125 444.024 108.943 445.101C107.275 445.665 98.1895 450.512 81.6849 459.643C82.5293 501.584 86.9251 534.3 94.8722 557.792C102.819 581.285 111.491 591.441 120.888 588.263C124.677 586.981 127.675 584.109 129.881 579.646C132.139 575.336 133.412 571.358 133.699 567.714C133.741 565.841 134.876 564.951 137.102 565.042C138.114 565.038 138.571 565.39 138.473 566.099C138.23 568.377 137.863 571.035 137.37 574.073C136.878 577.111 135.302 581.191 132.643 586.313C129.984 591.435 126.609 594.688 122.517 596.073C104.481 602.174 90.1562 589.538 79.543 558.164C70.5705 531.641 65.9085 501.632 65.557 468.139C63.5377 469.16 61.0124 470.183 57.9811 471.208Z" stroke="white" stroke-width="4" mask="url(#path-3-outside-1)"/>
<path d="M162.738 545.476C150.31 549.68 140.788 542.006 134.174 522.455C130.227 510.784 128.774 497.003 129.816 481.111C131.235 458.842 137.257 441.941 147.881 430.408C152.464 425.48 157.18 422.196 162.03 420.555C166.88 418.914 171.028 418.693 174.474 419.892C178.071 421.04 180.608 422.547 182.083 424.412L184.447 426.906C184.864 429.637 184.012 431.361 181.89 432.079C179.465 432.899 177.846 432.855 177.032 431.948C176.319 430.838 175.607 429.981 174.895 429.377C174.133 428.622 172.688 427.844 170.559 427.044C168.379 426.092 166.228 425.975 164.106 426.693C154.255 430.026 148.312 441.917 146.278 462.368C144.106 485.905 146.07 506.691 152.172 524.727C155.248 533.821 158.605 537.753 162.242 536.522C165.122 535.548 168.062 531.007 171.062 522.898C174.162 514.586 176.951 504.606 179.429 492.958C183.792 472.902 187.004 455.685 189.065 441.306C190.527 428.65 193.986 421.399 199.442 419.554C202.322 418.579 204.351 419.835 205.53 423.321C205.14 426.662 204.782 431.344 204.454 437.367C204.127 443.389 204.886 454.871 206.733 471.813C208.579 488.755 212.143 505.031 217.424 520.642C222.705 536.253 227.694 543.264 232.393 541.674C234.212 541.059 235.597 539.662 236.548 537.482C237.551 535.453 238.121 532.643 238.256 529.05C238.147 527.229 238.926 526.036 240.593 525.472C241.199 525.267 241.731 525.341 242.188 525.693C242.645 526.045 242.901 526.803 242.957 527.966C243.013 529.13 242.97 530.749 242.827 532.824C242.736 535.051 241.94 538.191 240.44 542.246C239.092 546.249 237.054 548.712 234.326 549.635C227.96 551.788 221.624 549.287 215.318 542.13C209.164 534.922 204.164 525.634 200.319 514.267C196.473 502.9 193.615 491.705 191.745 480.684L189.471 481.453C181.349 520.853 172.438 542.194 162.738 545.476Z" stroke="white" stroke-width="4" mask="url(#path-3-outside-1)"/>
<path d="M298.745 468.556C292.439 449.914 287.876 425.192 285.057 394.391C284.999 392.722 284.314 392.194 283.001 392.807C281.991 393.317 281.16 394.105 280.507 395.171C275.735 403.034 271.897 415.903 268.991 433.777C266.085 451.65 264.335 467.697 263.741 481.918C263.095 495.987 263.131 504.082 263.849 506.204C264.464 508.023 263.635 509.317 261.362 510.086C256.815 511.624 252.516 506.406 248.466 494.433C240.775 471.698 236.127 450.468 234.521 430.743C232.864 410.865 235.294 399.824 241.811 397.62C244.691 396.646 246.669 397.75 247.746 400.933C248.208 425.268 250.846 449.543 255.66 473.757L257.706 473.065C260.792 416.281 270.747 385.044 287.571 379.353C294.846 376.892 299.688 379.223 302.098 386.347C302.153 409.975 304.075 432.634 307.865 454.323L309.684 453.708C311.096 441.407 312.842 430.09 314.921 419.759C317.101 409.225 320.344 399.092 324.652 389.358C328.909 379.473 333.766 373.607 339.222 371.761C346.497 369.3 351.314 371.556 353.672 378.527C354.661 407.414 359.359 434.285 367.768 459.142C373.203 475.207 378.345 482.42 383.195 480.779C384.862 480.215 386.273 478.893 387.428 476.814C388.633 474.885 389.539 473.819 390.146 473.614C392.267 472.896 392.756 474.589 391.61 478.692C391.363 479.958 390.486 481.86 388.979 484.396C387.624 486.881 385.961 488.457 383.991 489.124C378.08 491.123 372.048 488.519 365.893 481.311C359.942 474.204 354.736 464.057 350.275 450.871C342.431 427.682 337.96 406.476 336.862 387.254C336.806 386.091 336.248 385.689 335.187 386.047C334.329 386.507 333.573 387.269 332.92 388.334C326.794 398.683 321.835 415.731 318.045 439.478C314.203 463.074 312.898 476.69 314.128 480.327C314.744 482.146 313.839 483.466 311.414 484.286C307.018 485.773 302.795 480.53 298.745 468.556Z" stroke="white" stroke-width="4" mask="url(#path-3-outside-1)"/>
<path d="M440.024 428.364C443.1 437.458 447.063 441.185 451.913 439.544C458.127 437.442 462.128 426.799 463.914 407.614C466.093 385.595 464.363 366.249 458.723 349.578C454.877 338.21 449.999 333.527 444.088 335.526C438.177 337.526 433.149 344.632 429.004 356.844C424.959 368.853 422.234 381.768 420.828 395.587C419.422 409.406 418.39 421.832 417.731 432.865C417.172 443.696 417.072 449.641 417.43 450.702C418.2 452.976 417.447 454.497 415.174 455.266C410.627 456.804 406.303 451.511 402.201 439.386C394.049 415.287 388.296 390.293 384.943 364.402C381.538 338.36 380.709 316.936 382.455 300.13C384.151 283.172 387.878 273.719 393.638 271.771C396.063 270.951 397.685 271.753 398.506 274.178C396.472 294.628 396.703 318.281 399.201 345.137C401.85 371.942 405.503 396.971 410.161 420.225L411.752 419.686C412.725 399.595 415.299 380.989 419.473 363.869C421.808 354.296 425.011 346.287 429.08 339.843C433.25 333.196 437.988 328.976 443.292 327.181C454.053 323.541 463.08 328.257 470.374 341.329C472.668 345.114 474.584 349.279 476.122 353.826C479.916 365.042 481.618 378.063 481.229 392.89C480.766 413.991 476.003 429.368 466.938 439.022C463.867 442.425 460.285 444.819 456.193 446.204C445.887 449.69 438.426 444.613 433.812 430.972C431.351 423.697 430.501 414.695 431.263 403.965C432.125 393.032 435.046 384.19 440.025 377.439C441.132 376.219 442.372 376.138 443.743 377.194C444.15 377.901 444.254 378.457 444.054 378.863C439.832 385.358 437.541 393.565 437.181 403.483C436.82 413.402 437.768 421.696 440.024 428.364Z" stroke="white" stroke-width="4" mask="url(#path-3-outside-1)"/>
<path d="M546.115 418.065C527.473 424.371 513.819 414.717 505.154 389.103C500.284 374.705 499.05 359.076 501.454 342.216C504.547 320.901 512.459 308.09 525.19 303.783C527.009 303.168 528.679 303.11 530.199 303.609C531.719 304.108 533.014 305.19 534.084 306.855C524.535 310.086 518.864 320.534 517.071 338.2C515.278 355.866 516.893 372.126 521.918 386.979C528.019 405.015 535.996 412.367 545.847 409.034C551.455 407.137 555.854 400.919 559.046 390.381C562.186 379.691 563.368 366.708 562.591 351.431C561.966 336.103 559.27 321.391 554.502 307.296L553.579 304.568C547.855 303.126 542.708 300.644 538.139 297.123C533.569 293.601 530.926 290.78 530.208 288.658C529.49 286.536 529.733 284.258 530.937 281.824C532.24 279.187 533.877 277.535 535.848 276.869C538.727 275.895 542.403 277.523 546.874 281.753C551.346 285.983 555.214 291.177 558.48 297.336C564.255 298.929 568.885 299.136 572.371 297.957C576.009 296.726 578.684 295.146 580.395 293.216C581.113 295.338 580.996 297.489 580.044 299.668C579.093 301.848 577.026 303.477 573.843 304.553C570.66 305.63 566.766 306.103 562.161 305.971C566.932 320.573 569.682 335.942 570.411 352.079C571.141 368.216 569.409 382.568 565.214 395.135C560.969 407.55 554.602 415.193 546.115 418.065Z" stroke="white" stroke-width="4" mask="url(#path-3-outside-1)"/>
<path d="M655.909 415.633C647.118 418.607 639.037 416.189 631.666 408.379C624.446 400.518 617.709 387.342 611.454 368.852C605.199 350.361 600.518 327.537 597.412 300.381C594.306 273.224 593.57 250.079 595.206 230.946C596.992 211.762 600.614 201.247 606.07 199.401C608.647 198.53 610.447 199.609 611.473 202.641C610.751 210.992 610.452 223.339 610.575 239.682C610.647 255.872 611.118 270.746 611.988 284.302C613.01 297.807 614.976 313.356 617.888 330.951C620.951 348.495 624.508 363.253 628.559 375.227C632.558 387.049 636.771 395.758 641.198 401.354C645.827 407.051 650.188 409.207 654.281 407.823C657.766 406.644 660.537 403.849 662.592 399.438C664.698 395.178 665.895 391.226 666.182 387.582C666.376 385.658 667.586 384.742 669.813 384.834C670.673 384.88 671.03 385.435 670.883 386.498C670.938 387.662 670.768 389.155 670.371 390.979C670.126 392.751 669.481 395.587 668.436 399.487C666.299 408.149 662.123 413.531 655.909 415.633Z" stroke="white" stroke-width="4" mask="url(#path-3-outside-1)"/>
<path d="M690.025 367.102C677.596 371.306 668.075 363.632 661.461 344.081C657.513 332.41 656.061 318.629 657.103 302.737C658.522 280.468 664.544 263.567 675.168 252.034C679.751 247.106 684.467 243.822 689.317 242.181C694.167 240.54 698.315 240.319 701.761 241.518C705.358 242.666 707.895 244.173 709.37 246.038L711.734 248.532C712.151 251.263 711.299 252.987 709.177 253.704C706.752 254.525 705.132 254.481 704.319 253.574C703.606 252.464 702.893 251.607 702.182 251.003C701.42 250.248 699.975 249.47 697.846 248.67C695.666 247.718 693.515 247.601 691.393 248.319C681.542 251.652 675.599 263.543 673.565 283.993C671.393 307.531 673.357 328.317 679.459 346.353C682.535 355.447 685.892 359.379 689.529 358.148C692.409 357.174 695.349 352.632 698.348 344.524C701.448 336.212 704.237 326.232 706.716 314.584C711.079 294.528 714.291 277.31 716.352 262.932C717.814 250.276 721.272 243.025 726.729 241.18C729.608 240.205 731.638 241.461 732.817 244.947C732.427 248.288 732.069 252.97 731.741 258.993C731.414 265.015 732.173 276.497 734.02 293.439C735.866 310.381 739.43 326.657 744.711 342.268C749.992 357.879 754.981 364.89 759.68 363.3C761.498 362.685 762.884 361.287 763.835 359.108C764.838 357.079 765.408 354.269 765.543 350.676C765.434 348.855 766.213 347.662 767.88 347.098C768.486 346.893 769.018 346.967 769.475 347.319C769.932 347.671 770.188 348.429 770.244 349.592C770.3 350.756 770.256 352.375 770.114 354.45C770.023 356.677 769.227 359.817 767.727 363.872C766.379 367.875 764.341 370.338 761.613 371.261C755.247 373.414 748.911 370.913 742.605 363.756C736.451 356.548 731.451 347.26 727.606 335.893C723.76 324.526 720.902 313.331 719.032 302.31L716.758 303.079C708.636 342.479 699.725 363.82 690.025 367.102Z" stroke="white" stroke-width="4" mask="url(#path-3-outside-1)"/>
</svg>
