<?xml version="1.0" standalone="no"?>
<!DOCTYPE svg PUBLIC "-//W3C//DTD SVG 20010904//EN"
 "http://www.w3.org/TR/2001/REC-SVG-20010904/DTD/svg10.dtd">
<svg version="1.0" xmlns="http://www.w3.org/2000/svg"
 width="268.000000pt" height="188.000000pt" viewBox="0 0 268.000000 188.000000"
 preserveAspectRatio="xMidYMid meet">

<g transform="translate(0.000000,188.000000) scale(0.100000,-0.100000)"
fill="#000000" stroke="none">
<path d="M850 1870 c-271 -9 -473 -27 -549 -46 -109 -29 -202 -114 -236 -216
-26 -76 -45 -228 -56 -450 -20 -368 14 -805 70 -922 46 -93 139 -162 251 -185
190 -38 872 -59 1403 -42 634 19 724 35 826 146 55 59 76 109 98 226 16 82 18
155 18 564 0 412 -2 481 -18 560 -23 117 -56 183 -118 239 -85 76 -165 95
-489 116 -215 14 -929 20 -1200 10z m648 -765 c155 -88 281 -162 281 -165 0
-4 -384 -225 -631 -363 l-68 -39 0 402 0 402 68 -39 c38 -21 195 -110 350
-198z"/>
</g>
</svg>
