<?xml version="1.0" encoding="utf-8"?><svg xmlns="http://www.w3.org/2000/svg" viewBox="0 0 424.6 80.7" height="34" width="179"><path d="M183.6 3.3V1.7c0-.3-.2-.5-.5-.5h-22c-.6 0-.8.1-1.2.5-2.8 3-4.8 6.9-4.8 12.1 0 4.7 1.3 8.9 4.9 12.9 8.3 9.3 26.3 14.4 33.3 20.2 2.6 2.2 4.2 4.6 4.2 7.4 0 6.3-4.4 11-17.8 11-7.8 0-14.4-1.5-23-3.2-.4-.1-.4.1-.4.3v13.3c0 .4.1.5.4.6 7.6 2.6 16.8 4.3 25.3 4.3 20.8 0 34.8-10.9 34.8-27.1 0-7.4-3-13.1-8.3-17.9-7.7-7-20.6-11.5-28-16-2.5-1.5-5.7-4-5.7-8.2.1-3.4 2.2-6.8 8.8-8.1zm95 76c-1.5.3-6.7 1.3-13.5 1.3-20.2 0-30.2-9.1-30.2-29.3V16.4h-22.7c-.3 0-.5-.1-.6-.5l-2.5-14.3c0-.3.1-.5.4-.5h69.1c.3 0 .5.2.5.5V16c0 .3-.2.5-.5.5h-24.8v35.3c0 10 5 14.1 16.2 14.1 4.6 0 7.5-.3 8.6-.5.3 0 .5.1.5.4v13c0 .3-.1.5-.5.5zm65.2-78.1C342.1.9 336.2 0 328.6 0c-18.7 0-34.1 7.7-34.1 29.8V79c0 .3.2.5.5.5h18c.3 0 .5-.2.5-.5V30.5c0-9.7 5.3-15.5 19.6-15.5 4.3 0 9 .4 10.8.6.3 0 .5-.1.5-.4V1.8c-.2-.3-.3-.5-.6-.6zm72.3 29.7C412.5 10.5 402.8 0 384.1 0s-28.4 10.5-32 30.9c0 0-8.4 47.8-8.5 48.1-.1.4.2.5.4.5h17.9c.4 0 .5-.1.5-.5.1-.3 3.2-18.4 3.2-18.4h27c.3 0 .5-.1.6-.5l2.5-14.3c0-.3-.1-.5-.4-.5h-27l2.6-14.5c1.7-9.6 4.2-15.8 13.2-15.8s11.5 6.2 13.2 15.8c0 0 8.4 47.8 8.5 48.1.1.3.2.5.5.5h17.9c.2 0 .5-.1.4-.5 0-.3-8.5-48-8.5-48zM116.7 79.5c.3 0 .5-.2.5-.5V57.1c14.6-2.8 21.6-12.9 24.6-30l4.4-25.5c0-.3-.1-.5-.4-.5h-17.5c-.4 0-.5.1-.5.5l-4.5 25.5c-1.7 9.6-6.2 16-15.2 16s-13.5-6.4-15.2-16L88.4 1.6c-.1-.3-.2-.5-.6-.5H70.2c-.3 0-.4.2-.4.5l4.4 25.5c3 17.1 9.9 27.2 24.6 30V79c0 .3.2.5.5.5h17.4zM37.2 38.8c-12.4-5.9-17.5-9-17.5-14.3 0-6.1 4.1-9.4 15.7-9.4 6.2 0 14.5 1 21.4 2.5.3.1.4 0 .4-.3V4.1c0-.3-.1-.5-.4-.6C48.9 1.3 42.2 0 33.1 0 12 0 0 10.3 0 24.7 0 31 2.1 36.1 6.4 40.6 14.8 49.3 33.1 55 39 60.7c2.7 2.6 3.5 4.9 3.5 7.3 0 6-4.5 8.6-9.8 9.6-.3.1-.8.1-1.2.2V79c0 .3.2.5.5.5h24.3c.6 0 .8-.1 1.2-.5 2.8-3.1 4.6-8.6 4.6-12.7 0-9.9-4.9-18-24.9-27.5z" fill="#d22328"/></svg>						
